ply
format ascii 1.0
element vertex 28
property float64 x
property float64 y
property float64 z
element face 36
property list int32 int64 vertex_indices
end_header
1.7854385280277636e-8 -5.087764118365791e-9 0.5
0.0 0.5 0.25
0.0 0.49999999999999983 -0.25
6.200193801129082e-9 5.087764146742049e-9 -0.5
2.405457906698995e-8 -0.5 -0.25
2.405457906698995e-8 -0.49999999999999983 0.25
1.7854385241832922e-8 -5.0877641940358135e-9 0.5
0.32973685788581764 1.9401804049146825e-8 0.21666666666666667
0.3297368695727699 0.450000003316035 0.10833333333333334
0.3297368695727699 0.450000003316035 -0.10833333333333334
0.32973685788581764 1.9401803957230306e-8 -0.21666666666666667
0.3297368482563687 -0.4499999805942698 -0.10833333333333334
0.3297368482563687 -0.4499999805942698 0.10833333333333334
0.32973685788581764 1.9401804049146825e-8 0.21666666666666667
0.7486511948912525 -1.9054957429934456e-8 0.18333333333333335
0.7486511057524974 0.3499999629871534 0.09166666666666666
0.7486511057524974 0.3499999629871534 -0.09166666666666669
0.7486511948912525 -1.9054957507709967e-8 -0.18333333333333335
0.7486512840300074 -0.3500000010970684 -0.09166666666666666
0.7486512840300074 -0.3500000010970684 0.09166666666666669
0.7486511948912525 -1.9054957429934456e-8 0.18333333333333335
0.9999999999999999 8.345652592065491e-8 -7.265095666666682e-10
0.9999999999999999 8.345652592065491e-8 -7.265095666666682e-10
0.9999999999999999 8.345652592065491e-8 -7.265095666666682e-10
0.9999999999999999 8.345652592065491e-8 -7.265095666666682e-10
0.9999999999999999 8.345652592065491e-8 -7.265095666666682e-10
0.9999999999999999 8.345652592065491e-8 -7.265095666666682e-10
0.9999999999999999 8.345652592065491e-8 -7.265095666666682e-10
3 7 8 1
3 7 1 0
3 8 9 2
3 8 2 1
3 9 10 3
3 9 3 2
3 10 11 4
3 10 4 3
3 11 12 5
3 11 5 4
3 12 13 6
3 12 6 5
3 14 15 8
3 14 8 7
3 15 16 9
3 15 9 8
3 16 17 10
3 16 10 9
3 17 18 11
3 17 11 10
3 18 19 12
3 18 12 11
3 19 20 13
3 19 13 12
3 21 22 15
3 21 15 14
3 22 23 16
3 22 16 15
3 23 24 17
3 23 17 16
3 24 25 18
3 24 18 17
3 25 26 19
3 25 19 18
3 26 27 20
3 26 20 19
